<mxfile host="app.diagrams.net" agent="Mozilla/5.0 (Windows NT 10.0; Win64; x64) AppleWebKit/537.36 (KHTML, like Gecko) Chrome/126.0.0.0 Safari/537.36 OPR/112.0.0.0" version="24.7.6">
  <diagram name="Seite-1" id="-tbs9R99MU5sMYvW19ob">
    <mxGraphModel dx="1727" dy="949" grid="1" gridSize="10" guides="1" tooltips="1" connect="1" arrows="1" fold="1" page="1" pageScale="1" pageWidth="1169" pageHeight="827" math="0" shadow="0">
      <root>
        <mxCell id="0" />
        <mxCell id="1" parent="0" />
        <mxCell id="GuMBQw5mWaE-lglOih7J-1" value="&lt;h1 style=&quot;margin-top: 0px;&quot;&gt;CINEMA ERM&lt;/h1&gt;&lt;p style=&quot;margin-top:6.0pt;margin-right:0cm;margin-bottom:6.0pt;&lt;br/&gt;margin-left:0cm;text-align:justify;line-height:115%&quot; class=&quot;MsoNormal&quot;&gt;&lt;span style=&quot;line-height: 115%; font-family: Arial, sans-serif; color: rgb(32, 33, 34);&quot; lang=&quot;EN-US&quot;&gt;&lt;font style=&quot;font-size: 10px;&quot;&gt;The STAR-MOVIES company operates a cinema chain&lt;br&gt;with several cinemas (Name, Address... ). Each cinema can have several halls&lt;br&gt;where the films are shown. The seating plan of each hall should be recorded; a&lt;br&gt;row and a seat must be indicated for each seat. A box should be managed like a&lt;br&gt;row. It must be possible to create a seating plan. Of course, several films can&lt;br&gt;be shown per room on one day. In order to be able to determine which seats are&lt;br&gt;available for a performance, each ticket purchase must be noted. Each ticket&lt;br&gt;should show: cinema, hall, film title, date, starting time, serial number, row,&lt;br&gt;seat, price. Provision must be made for pricing: Each row of a hall has a&lt;br&gt;standard price, but for certain performances the row prices can be set&lt;br&gt;individually. For information purposes, the actors should be recorded with&lt;br&gt;their personal data (surname, first name, nationality, date of birth, date of&lt;br&gt;death, comments, ... ) and it should be possible to tell which actors have&lt;br&gt;acted in which films. The analogous statements should also be possible for&lt;br&gt;directors, whereby it can be assumed that there is only one director for a&lt;br&gt;film. However, it is possible that the director also plays a part in a film.&lt;br&gt;The other data of a film include: Title, type (thriller, western, youth film, ...&lt;br&gt;), year of production, country, language, duration, distribution, etc.&lt;/font&gt;&lt;/span&gt;&lt;/p&gt;&lt;p style=&quot;margin-top:6.0pt;margin-right:0cm;margin-bottom:6.0pt;&lt;br/&gt;margin-left:0cm;text-align:justify;line-height:115%&quot; class=&quot;MsoNormal&quot;&gt;&lt;span style=&quot;line-height: 115%; font-family: Arial, sans-serif; color: rgb(32, 33, 34);&quot; lang=&quot;EN-US&quot;&gt;&lt;font style=&quot;font-size: 10px;&quot;&gt;&lt;br&gt;&lt;/font&gt;&lt;/span&gt;&lt;/p&gt;&lt;p style=&quot;margin-top:6.0pt;margin-right:0cm;margin-bottom:6.0pt;&lt;br/&gt;margin-left:0cm;text-align:justify;line-height:115%&quot; class=&quot;MsoNormal&quot;&gt;&lt;span style=&quot;line-height: 115%; font-family: Arial, sans-serif; color: rgb(32, 33, 34);&quot; lang=&quot;EN-US&quot;&gt;&lt;font style=&quot;font-size: 10px;&quot;&gt;Create a ERD and a Relation Model for this example&lt;/font&gt;&lt;/span&gt;&lt;/p&gt;" style="text;html=1;whiteSpace=wrap;overflow=hidden;rounded=0;" vertex="1" parent="1">
          <mxGeometry width="360" height="350" as="geometry" />
        </mxCell>
        <mxCell id="GuMBQw5mWaE-lglOih7J-2" value="CINEMA" style="rounded=0;whiteSpace=wrap;html=1;" vertex="1" parent="1">
          <mxGeometry x="320" y="540" width="120" height="60" as="geometry" />
        </mxCell>
        <mxCell id="GuMBQw5mWaE-lglOih7J-3" value="HALL" style="rounded=0;whiteSpace=wrap;html=1;" vertex="1" parent="1">
          <mxGeometry x="1030" y="540" width="120" height="60" as="geometry" />
        </mxCell>
        <mxCell id="GuMBQw5mWaE-lglOih7J-4" value="SEAT" style="rounded=0;whiteSpace=wrap;html=1;" vertex="1" parent="1">
          <mxGeometry x="1030" y="647" width="120" height="60" as="geometry" />
        </mxCell>
        <mxCell id="GuMBQw5mWaE-lglOih7J-5" value="ROW" style="rounded=0;whiteSpace=wrap;html=1;" vertex="1" parent="1">
          <mxGeometry x="910" y="767" width="120" height="60" as="geometry" />
        </mxCell>
        <mxCell id="GuMBQw5mWaE-lglOih7J-6" value="SEAT" style="rounded=0;whiteSpace=wrap;html=1;" vertex="1" parent="1">
          <mxGeometry x="1150" y="767" width="120" height="60" as="geometry" />
        </mxCell>
        <mxCell id="GuMBQw5mWaE-lglOih7J-8" value="part of" style="rhombus;whiteSpace=wrap;html=1;" vertex="1" parent="1">
          <mxGeometry x="940" y="717" width="60" height="30" as="geometry" />
        </mxCell>
        <mxCell id="GuMBQw5mWaE-lglOih7J-9" value="part of" style="rhombus;whiteSpace=wrap;html=1;" vertex="1" parent="1">
          <mxGeometry x="1180" y="717" width="60" height="30" as="geometry" />
        </mxCell>
        <mxCell id="GuMBQw5mWaE-lglOih7J-10" value="" style="endArrow=none;html=1;rounded=0;entryX=0.5;entryY=1;entryDx=0;entryDy=0;exitX=0.5;exitY=0;exitDx=0;exitDy=0;" edge="1" parent="1" source="GuMBQw5mWaE-lglOih7J-5" target="GuMBQw5mWaE-lglOih7J-8">
          <mxGeometry width="50" height="50" relative="1" as="geometry">
            <mxPoint x="1130" y="907" as="sourcePoint" />
            <mxPoint x="1180" y="857" as="targetPoint" />
          </mxGeometry>
        </mxCell>
        <mxCell id="GuMBQw5mWaE-lglOih7J-11" value="" style="endArrow=none;html=1;rounded=0;entryX=0.5;entryY=1;entryDx=0;entryDy=0;exitX=0.5;exitY=0;exitDx=0;exitDy=0;" edge="1" parent="1" source="GuMBQw5mWaE-lglOih7J-6" target="GuMBQw5mWaE-lglOih7J-9">
          <mxGeometry width="50" height="50" relative="1" as="geometry">
            <mxPoint x="1190" y="807" as="sourcePoint" />
            <mxPoint x="1240" y="757" as="targetPoint" />
          </mxGeometry>
        </mxCell>
        <mxCell id="GuMBQw5mWaE-lglOih7J-13" value="" style="endArrow=none;html=1;rounded=0;exitX=0.5;exitY=0;exitDx=0;exitDy=0;entryX=0.5;entryY=0;entryDx=0;entryDy=0;" edge="1" parent="1" source="GuMBQw5mWaE-lglOih7J-8" target="GuMBQw5mWaE-lglOih7J-9">
          <mxGeometry width="50" height="50" relative="1" as="geometry">
            <mxPoint x="1130" y="907" as="sourcePoint" />
            <mxPoint x="1180" y="857" as="targetPoint" />
            <Array as="points">
              <mxPoint x="1090" y="707" />
            </Array>
          </mxGeometry>
        </mxCell>
        <mxCell id="GuMBQw5mWaE-lglOih7J-14" value="is showing" style="rhombus;whiteSpace=wrap;html=1;" vertex="1" parent="1">
          <mxGeometry x="460" y="545" width="80" height="50" as="geometry" />
        </mxCell>
        <mxCell id="GuMBQw5mWaE-lglOih7J-15" value="" style="endArrow=none;html=1;rounded=0;exitX=1;exitY=0.5;exitDx=0;exitDy=0;entryX=0;entryY=0.5;entryDx=0;entryDy=0;" edge="1" parent="1" source="GuMBQw5mWaE-lglOih7J-2" target="GuMBQw5mWaE-lglOih7J-14">
          <mxGeometry width="50" height="50" relative="1" as="geometry">
            <mxPoint x="440" y="520" as="sourcePoint" />
            <mxPoint x="490" y="470" as="targetPoint" />
          </mxGeometry>
        </mxCell>
        <mxCell id="GuMBQw5mWaE-lglOih7J-17" value="BOX" style="rounded=0;whiteSpace=wrap;html=1;" vertex="1" parent="1">
          <mxGeometry x="910" y="960" width="120" height="60" as="geometry" />
        </mxCell>
        <mxCell id="GuMBQw5mWaE-lglOih7J-18" value="FILM" style="rounded=0;whiteSpace=wrap;html=1;" vertex="1" parent="1">
          <mxGeometry x="560" y="540" width="120" height="60" as="geometry" />
        </mxCell>
        <mxCell id="GuMBQw5mWaE-lglOih7J-19" value="ACTOR" style="rounded=0;whiteSpace=wrap;html=1;" vertex="1" parent="1">
          <mxGeometry x="670" y="420" width="120" height="60" as="geometry" />
        </mxCell>
        <mxCell id="GuMBQw5mWaE-lglOih7J-20" value="DIRECTOR" style="rounded=0;whiteSpace=wrap;html=1;" vertex="1" parent="1">
          <mxGeometry x="440" y="420" width="120" height="60" as="geometry" />
        </mxCell>
        <mxCell id="GuMBQw5mWaE-lglOih7J-21" value="PRICE" style="rounded=0;whiteSpace=wrap;html=1;" vertex="1" parent="1">
          <mxGeometry x="790" y="670" width="120" height="60" as="geometry" />
        </mxCell>
        <mxCell id="GuMBQw5mWaE-lglOih7J-22" value="TICKET" style="whiteSpace=wrap;html=1;" vertex="1" parent="1">
          <mxGeometry x="790" y="540" width="120" height="60" as="geometry" />
        </mxCell>
        <mxCell id="GuMBQw5mWaE-lglOih7J-23" value="FILMTYPE" style="whiteSpace=wrap;html=1;" vertex="1" parent="1">
          <mxGeometry x="560" y="670" width="120" height="60" as="geometry" />
        </mxCell>
      </root>
    </mxGraphModel>
  </diagram>
</mxfile>
